<?xml version="1.0" encoding="iso-8859-1"?>
<!-- Generator: Adobe Illustrator 18.0.0, SVG Export Plug-In . SVG Version: 6.00 Build 0)  -->
<!DOCTYPE svg PUBLIC "-//W3C//DTD SVG 1.1//EN" "http://www.w3.org/Graphics/SVG/1.1/DTD/svg11.dtd">
<svg version="1.1" id="Capa_1" xmlns="http://www.w3.org/2000/svg" xmlns:xlink="http://www.w3.org/1999/xlink" x="0px" y="0px"
	 viewBox="0 0 422 422" style="enable-background:new 0 0 422 422;" xml:space="preserve">
<path d="M296.631,22.175l-57.214-4.833c-0.166-0.014-0.334-0.023-0.5-0.037C238.074,7.624,229.936,0,220.04,0h-18.08
	c-9.896,0-18.034,7.624-18.876,17.306c-0.166,0.014-0.334,0.023-0.5,0.037l-57.214,4.833c-7.624,0.643-13.597,7.142-13.597,14.793
	v67.228c0,8.187,6.66,14.847,14.847,14.847H183v281.08c0,12.063,9.814,21.877,21.877,21.877h12.246
	c12.063,0,21.877-9.814,21.877-21.877v-281.08h56.382c8.186,0,14.846-6.66,14.846-14.847V36.969
	C310.228,29.317,304.255,22.819,296.631,22.175z M201.96,8h18.08c5.282,0,9.703,3.756,10.733,8.738
	c-6.588-0.386-13.208-0.593-19.773-0.593c-6.565,0-13.185,0.207-19.773,0.593C192.257,11.756,196.678,8,201.96,8z M231,322v13.667
	h-40V322H231z M191,314v-13.667h40V314H191z M231,343.667v13.667h-40v-13.667H231z M231,292.333h-40v-13.667h40V292.333z
	 M191,365.333h40V379h-40V365.333z M231,270.667h-40V257h40V270.667z M217.123,414h-12.246c-7.652,0-13.877-6.225-13.877-13.877V387
	h40v13.123C231,407.775,224.775,414,217.123,414z M231,249h-40V119.043h40V249z M302.228,104.196c0,3.775-3.071,6.847-6.846,6.847
	H126.619c-3.775,0-6.847-3.071-6.847-6.847V36.969c0-3.528,2.754-6.525,6.27-6.822l57.215-4.833
	c9.188-0.776,18.522-1.169,27.743-1.169c9.221,0,18.555,0.394,27.743,1.169l57.215,4.833c3.516,0.297,6.27,3.293,6.27,6.822V104.196
	z"/>
<g>
</g>
<g>
</g>
<g>
</g>
<g>
</g>
<g>
</g>
<g>
</g>
<g>
</g>
<g>
</g>
<g>
</g>
<g>
</g>
<g>
</g>
<g>
</g>
<g>
</g>
<g>
</g>
<g>
</g>
</svg>
