<?xml version="1.0" encoding="iso-8859-1"?>
<!-- Generator: Adobe Illustrator 17.1.0, SVG Export Plug-In . SVG Version: 6.00 Build 0)  -->
<!DOCTYPE svg PUBLIC "-//W3C//DTD SVG 1.1//EN" "http://www.w3.org/Graphics/SVG/1.1/DTD/svg11.dtd">
<svg version="1.1" id="Capa_1" xmlns="http://www.w3.org/2000/svg" xmlns:xlink="http://www.w3.org/1999/xlink" x="0px" y="0px"
	 viewBox="0 0 470 470" style="enable-background:new 0 0 470 470;" xml:space="preserve">
<g>
	<path d="M404.301,23.606C389.078,8.384,368.838,0,347.31,0c-21.527,0-41.768,8.384-56.99,23.606c-2.929,2.929-2.929,7.678,0,10.606
		l16.234,16.234c6.91,6.91,6.91,18.154,0,25.064l-170.91,170.91c-1.407,1.406-2.197,3.314-2.197,5.303s0.79,3.897,2.197,5.303
		l35.015,35.015c-2.38,1.11-4.584,2.616-6.496,4.529L52.754,407.98c-14.165,14.165-14.165,37.213,0,51.378
		C59.616,466.221,68.739,470,78.444,470c9.704,0,18.827-3.779,25.689-10.641L215.542,347.95c7.021-7.021,8.468-17.513,4.388-25.992
		l184.371-184.371C435.725,106.163,435.725,55.031,404.301,23.606z M63.361,448.752c-8.316-8.317-8.316-21.849,0-30.166
		l87.952-87.952l30.166,30.166l-87.952,87.952C89.497,452.781,84.141,455,78.444,455C72.746,455,67.39,452.781,63.361,448.752z
		 M204.935,337.343l-12.851,12.851l-30.166-30.166l12.851-12.851c1.469-1.469,3.422-2.278,5.5-2.278s4.03,0.809,5.5,2.278
		l19.167,19.167C207.968,329.376,207.968,334.311,204.935,337.343z M210.239,310.435l-37.471-37.497l144.394-144.394
		c2.929-2.929,2.929-7.678,0-10.606c-2.932-2.928-7.678-2.929-10.607,0L162.161,262.332l-10.607-10.607L317.161,86.118
		c12.758-12.759,12.758-33.518,0-46.277l-10.63-10.63c4.104-3.262,8.515-5.955,13.121-8.091l8.115,8.115
		c9.014,9.013,13.978,20.997,13.978,33.745c0,12.748-4.964,24.732-13.978,33.746c-2.929,2.928-2.93,7.675-0.003,10.604
		c1.467,1.467,3.386,2.199,5.306,2.199c1.919,0,3.839-0.732,5.303-2.197c11.848-11.846,18.372-27.598,18.372-44.352
		c0-16.755-6.524-32.506-18.371-44.352l-2.577-2.577c20.393-3.608,42.175,2.441,57.896,18.163c25.576,25.576,25.576,67.191,0,92.768
		L210.239,310.435z"/>
</g>
<g>
</g>
<g>
</g>
<g>
</g>
<g>
</g>
<g>
</g>
<g>
</g>
<g>
</g>
<g>
</g>
<g>
</g>
<g>
</g>
<g>
</g>
<g>
</g>
<g>
</g>
<g>
</g>
<g>
</g>
</svg>
